<?xml version="1.0" standalone="no"?>
<!DOCTYPE svg PUBLIC "-//W3C//DTD SVG 20010904//EN"
 "http://www.w3.org/TR/2001/REC-SVG-20010904/DTD/svg10.dtd">
<svg version="1.0" xmlns="http://www.w3.org/2000/svg"
 width="60.000000pt" height="60.000000pt" viewBox="0 0 60.000000 60.000000"
 preserveAspectRatio="xMidYMid meet">
<metadata>
Created by potrace 1.16, written by Peter Selinger 2001-2019
</metadata>
<g transform="translate(0.000000,60.000000) scale(0.100000,-0.100000)"
fill="#000000" stroke="none">
<path d="M80 540 c-27 -27 -25 -56 3 -65 l22 -8 -22 -4 c-32 -6 -32 -50 0 -56
l22 -4 -22 -2 c-32 -2 -32 -48 0 -54 l22 -4 -22 -2 c-32 -2 -32 -48 0 -61 l22
-9 -22 0 c-33 -1 -33 -48 0 -54 l22 -4 -22 -2 c-31 -1 -33 -51 -3 -51 11 0 20
-4 20 -10 0 -5 -9 -10 -20 -10 -27 0 -27 -49 -1 -81 19 -23 25 -24 183 -27 89
-2 187 -1 216 3 79 10 81 16 76 274 -4 234 -8 252 -63 250 -21 -1 -22 -2 -6
-6 11 -3 28 -12 38 -21 15 -13 17 -38 17 -233 0 -214 0 -218 -22 -233 -18 -13
-56 -16 -210 -16 -114 0 -189 4 -193 10 -4 7 60 10 184 10 159 0 192 3 205 16
14 13 16 47 16 213 0 179 -2 199 -18 214 -16 15 -45 17 -200 17 -160 0 -219 8
-180 23 8 3 6 6 -4 6 -10 1 -27 -8 -38 -19z m266 -103 c84 -25 123 -124 74
-187 -11 -14 -20 -31 -20 -37 0 -7 -9 -13 -21 -13 -11 0 -29 -4 -39 -10 -21
-11 -120 9 -120 24 0 5 -10 20 -21 33 -30 31 -30 105 0 136 11 13 21 29 21 35
0 7 10 12 23 12 12 0 29 5 37 10 19 12 17 12 66 -3z"/>
<path d="M269 397 c-8 -7 -22 -16 -32 -20 -10 -4 -16 -11 -12 -17 3 -5 0 -19
-7 -30 -11 -17 -11 -22 0 -29 7 -4 10 -15 6 -24 -4 -11 0 -19 12 -24 11 -3 22
-12 26 -19 13 -21 81 -11 108 16 14 14 24 29 22 34 -1 4 3 15 10 24 10 12 10
16 1 19 -7 3 -13 12 -13 22 0 24 -59 66 -73 52 -7 -7 -14 -7 -23 0 -8 7 -16 6
-25 -4z"/>
<path d="M173 553 c9 -2 23 -2 30 0 6 3 -1 5 -18 5 -16 0 -22 -2 -12 -5z"/>
<path d="M248 553 c7 -3 16 -2 19 1 4 3 -2 6 -13 5 -11 0 -14 -3 -6 -6z"/>
<path d="M348 553 c12 -2 30 -2 40 0 9 3 -1 5 -23 4 -22 0 -30 -2 -17 -4z"/>
</g>
</svg>
