<?xml version="1.0" standalone="no"?>
<!DOCTYPE svg PUBLIC "-//W3C//DTD SVG 20010904//EN"
 "http://www.w3.org/TR/2001/REC-SVG-20010904/DTD/svg10.dtd">
<svg version="1.0" xmlns="http://www.w3.org/2000/svg"
 width="60.000000pt" height="60.000000pt" viewBox="0 0 60.000000 60.000000"
 preserveAspectRatio="xMidYMid meet">

<g transform="translate(0.000000,60.000000) scale(0.100000,-0.100000)"
fill="#000000" stroke="none">
<path d="M238 523 c-17 -4 -24 -21 -30 -73 -3 -22 -8 -25 -47 -28 l-44 -3 6
-70 c9 -112 20 -124 119 -143 33 -6 38 -4 51 19 12 24 15 25 26 11 8 -9 26
-16 42 -16 33 0 59 -23 59 -54 0 -28 -18 -46 -46 -46 -30 0 -41 20 -21 35 26
19 21 37 -10 33 -35 -4 -52 -45 -35 -83 11 -23 17 -25 72 -25 55 0 60 2 74 29
38 72 44 333 9 362 -7 7 -37 14 -66 17 -29 2 -59 10 -67 17 -18 15 -68 25 -92
18z m190 -206 c2 -9 -1 -17 -7 -17 -6 0 -11 -7 -11 -15 0 -22 -36 -38 -60 -25
-29 15 -27 68 2 79 30 11 72 -1 76 -22z"/>
<path d="M162 467 l-33 -34 31 5 c33 5 44 19 38 47 -2 13 -10 9 -36 -18z"/>
</g>
</svg>
